<svg id="Layer_3" data-name="Layer 3" xmlns="http://www.w3.org/2000/svg" viewBox="0 0 114.71 152.96"><defs><style>.cls-1{fill:none;}.cls-2{fill:#ddd;}.cls-3{fill:#363946;}.cls-4{fill:#a50808;}</style></defs><path class="cls-1" d="M24.23,54.86a.58.58,0,0,1,.18-.72c-1.26-7.36-4.34-19.73-2.67-27C24,17.28,42,8.45,57.92,7.93q.77-2.38,1.42-4.84a1.09,1.09,0,0,0-.25-1,1.06,1.06,0,0,0-1-.34c-6.8,1.42-14,3.05-20.65,6.1-5.75,2.62-13.51,7.5-17.88,15.83-2.89,5.5-3.95,11.81-5,17.9L11.86,57.75c4.1-3.3,9.88-4.33,13-.14-.05-.7-.16-1.54-.31-2.47A.58.58,0,0,1,24.23,54.86Z"/><path class="cls-1" d="M59.89,5.27c-.25.88-.51,1.76-.79,2.63.67,0,1.33,0,2,0h0A12.46,12.46,0,0,1,59.89,5.27Z"/><path class="cls-1" d="M86.09,22.24c1.76.6,3.44,1.11,4.93,1.53A24.67,24.67,0,0,0,79.89,5.87c-3.15-2.11-10.6-4.62-15.21-4.62a4.81,4.81,0,0,0-3.35.91c-1.14,1.13-.2,3.42.79,5.13a8.23,8.23,0,0,0,.46.74A28.15,28.15,0,0,1,74,11.18,38.68,38.68,0,0,1,86.09,22.24Z"/><path class="cls-2" d="M9.68,59.92c-2.24,2.8-2.37,7.26-1.21,11.36L10.53,59C10.24,59.27,10,59.58,9.68,59.92Z"/><path class="cls-2" d="M74.31,115.33,73,93.19c5.87-1.06,13.14-6.2,16.68-11A33.74,33.74,0,0,0,94,74.1a4.86,4.86,0,0,1-1.73-3.25c-.85-4.24-.51-17,4.59-19.85a58.65,58.65,0,0,0-9.56-27.07C80,21.58,65.8,16.11,61.08,7.94c-.65,0-1.31,0-2,0C52.31,29.72,39.76,47.17,25,55.1a.54.54,0,0,1-.41,0c.15.93.26,1.77.31,2.47-3.14-4.19-8.92-3.16-13,.14L9.23,73.47a15.49,15.49,0,0,0,3.63,5.47c4.6,4.24,12,6.47,17.63,3.83,1.26,6.57,1.64,18.88,3.32,31.82-3.69,3.16-14.65,17.15-23,29.19A5.86,5.86,0,0,0,15.69,153H97.91a5.88,5.88,0,0,0,4.75-9.33A128.13,128.13,0,0,0,74.31,115.33Z"/><path class="cls-2" d="M96.26,65.7A47.59,47.59,0,0,1,94,74.1l.21.13c1.5.77,3.3-.17,4.61-1.24a20.86,20.86,0,0,0,6.43-9.18,13.31,13.31,0,0,0,.69-7.19A7.82,7.82,0,0,0,101.64,51a5.19,5.19,0,0,0-4.79,0A55.19,55.19,0,0,1,96.26,65.7Z"/><path class="cls-2" d="M92.26,70.85A4.86,4.86,0,0,0,94,74.1a47.59,47.59,0,0,0,2.27-8.4A55.19,55.19,0,0,0,96.85,51C91.75,53.84,91.41,66.61,92.26,70.85Z"/><path class="cls-3" d="M14.57,41.54c1-6.09,2.08-12.4,5-17.9,4.37-8.33,12.13-13.21,17.88-15.83,6.65-3,13.85-4.68,20.65-6.1a1.06,1.06,0,0,1,1,.34,1.09,1.09,0,0,1,.25,1q-.66,2.46-1.42,4.84l1.18,0c.28-.87.54-1.75.79-2.63a4,4,0,0,1,.28-3.62,2.48,2.48,0,0,0-.27-.39,2.18,2.18,0,0,0-2-.68C51,2,43.72,3.67,37,6.76c-5.91,2.69-13.89,7.72-18.41,16.33-3,5.67-4,12.07-5.08,18.26L10.53,59a16.88,16.88,0,0,1,1.33-1.21Z"/><path class="cls-3" d="M24.23,54.86a.58.58,0,0,0,.34.28c-.05-.32-.11-.66-.16-1A.58.58,0,0,0,24.23,54.86Z"/><path class="cls-3" d="M1.16,115C.31,120.06-.65,125.82.6,131.27c1.13,4.95,5,10.6,10.67,11.31h.06a.57.57,0,0,0,.56-.5.58.58,0,0,0-.49-.64c-5.19-.65-8.68-5.86-9.72-10.44-1.2-5.21-.25-10.85.58-15.82l7-41.71a21,21,0,0,1-.76-2.19Z"/><path class="cls-3" d="M10.53,59,8.47,71.28a21,21,0,0,0,.76,2.19l2.63-15.72A16.88,16.88,0,0,0,10.53,59Z"/><path class="cls-3" d="M24.47,54.08l-.06.06c.05.34.11.68.16,1a.54.54,0,0,0,.41,0C39.76,47.17,52.31,29.72,59.1,7.9l-1.18,0C51.19,29.29,38.9,46.34,24.47,54.08Z"/><path class="cls-3" d="M60.41,3.39c-.17.63-.34,1.26-.52,1.88a12.46,12.46,0,0,0,1.19,2.66h0c.51,0,1,0,1.5.09a8.23,8.23,0,0,1-.46-.74c-1-1.71-1.93-4-.79-5.13a4.81,4.81,0,0,1,3.35-.91c4.61,0,12.06,2.51,15.21,4.62A24.67,24.67,0,0,1,91,23.77c-1.49-.42-3.17-.93-4.93-1.53.41.55.81,1.12,1.2,1.69,2.13.69,3.68,1.12,4.24,1.26l.8.22,0-.85C91.9,16.87,87.51,9.5,80.55,4.83,77,2.47,64-2.26,60.49,1.26a3.89,3.89,0,0,0-.32.39A2.25,2.25,0,0,1,60.41,3.39Z"/><path class="cls-3" d="M62.58,8c-.5,0-1-.07-1.5-.09,4.72,8.17,18.89,13.64,26.21,16-.39-.57-.79-1.14-1.2-1.69C77.57,19.34,66.79,14.33,62.58,8Z"/><path class="cls-3" d="M59.89,5.27c.18-.62.35-1.25.52-1.88a2.25,2.25,0,0,0-.24-1.74A4,4,0,0,0,59.89,5.27Z"/><path class="cls-3" d="M114.39,125.69c-1.26-9.9-5.94-18.82-9.88-25.48A98.77,98.77,0,0,0,99,92a68.06,68.06,0,0,1-6.91-11.09.59.59,0,0,0-.81-.28.62.62,0,0,0-.27.83,68.07,68.07,0,0,0,7,11.28c1.75,2.41,3.55,4.91,5.48,8.17,3.88,6.56,8.48,15.32,9.72,25s-1.4,19-7,24.83a.65.65,0,0,0,0,.89.61.61,0,0,0,.43.18.6.6,0,0,0,.43-.18C112.92,145.48,115.68,135.8,114.39,125.69Z"/><path class="cls-3" d="M66.68,49.47c-.16,2.35-.25,4.81.7,7s3.25,3.9,5.56,3.43a5.19,5.19,0,0,0,3.69-4,11.64,11.64,0,0,0-.37-5.64c-.61-2.3-2.37-8.27-5.38-8.5C67.41,41.5,66.84,47.14,66.68,49.47Z"/><path class="cls-3" d="M51.36,42.83c.46,2.22-.15,4.22-1.37,4.48s-2.6-1.32-3.07-3.54.15-4.22,1.37-4.48S50.89,40.62,51.36,42.83Z"/><path class="cls-3" d="M84.94,40c.16,2.26-.72,4.17-2,4.25s-2.39-1.67-2.55-3.93.72-4.16,2-4.25S84.78,37.75,84.94,40Z"/><path class="cls-3" d="M66.5,72.69c-11.15,0-15.39-6.08-15.58-6.37a.58.58,0,0,1,.16-.81.57.57,0,0,1,.81.15c0,.07,5.06,7.2,18.45,5.63a.58.58,0,1,1,.13,1.16A33.06,33.06,0,0,1,66.5,72.69Z"/><path class="cls-3" d="M27.65,70.25a.6.6,0,0,1-.51-.28A23.59,23.59,0,0,0,23,64.33a7.56,7.56,0,0,0-6.1-2.11c-1.95.34-3.95,2.23-3.7,4.39a.59.59,0,1,1-1.17.13c-.32-2.85,2.15-5.23,4.67-5.68a8.68,8.68,0,0,1,7.08,2.4,24.41,24.41,0,0,1,4.39,5.91.58.58,0,0,1-.2.8A.56.56,0,0,1,27.65,70.25Z"/><path class="cls-3" d="M19.41,73.82a.62.62,0,0,1-.26-.06.6.6,0,0,1-.27-.79,13.64,13.64,0,0,1,6.56-6.34.59.59,0,0,1,.78.3.58.58,0,0,1-.3.77,12.37,12.37,0,0,0-6,5.79A.58.58,0,0,1,19.41,73.82Z"/><path class="cls-3" d="M61.9,96.33c-10.63,0-20.18-4.26-28-12.61a.59.59,0,0,1,0-.83.59.59,0,0,1,.83,0c10,10.67,22.93,14.46,37.31,11a.58.58,0,0,1,.71.43.6.6,0,0,1-.43.71A44.47,44.47,0,0,1,61.9,96.33Z"/><path class="cls-3" d="M94.41,73.13a.48.48,0,0,1-.2,0,.57.57,0,0,1-.35-.75c2.91-8.1,3.14-12.77,2.56-20.82a.59.59,0,0,1,1.17-.08c.58,8.06.34,13-2.63,21.3A.59.59,0,0,1,94.41,73.13Z"/><path class="cls-3" d="M61.63,151.09c-3.4,0-32.08-11.54-37.73-23.55a.59.59,0,0,1,.28-.78A.58.58,0,0,1,25,127c5.54,11.78,34.59,23.09,36.66,22.88,2.91-.32,5.52-2.15,7.69-3.88a60.93,60.93,0,0,0,16.32-20.41.59.59,0,0,1,1.05.53A62,62,0,0,1,70,147c-2.3,1.84-5.08,3.78-8.29,4.14Z"/><path class="cls-4" d="M49.16,61.66a13.72,13.72,0,0,1-5.2-1A19.19,19.19,0,0,1,34.33,51C32.84,47.93,29.62,40.4,32,37c1.71-2.42,16.81-6.2,24.78-5.65,2.87.2,4.59.91,5.24,2.17,1.43,2.79.64,9.56-.2,15.15-.7,4.56-2.19,7.83-4.58,10A12,12,0,0,1,49.16,61.66Zm5.9-29.16C47,32.5,34.23,35.9,33,37.71c-2.07,2.93,1.34,10.53,2.43,12.79a17.93,17.93,0,0,0,9,9c4.2,1.72,9.05,1,12-1.71,2.18-2,3.55-5,4.21-9.32.43-2.87,1.76-11.62.31-14.43-.42-.83-1.94-1.38-4.27-1.54C56.18,32.51,55.63,32.5,55.06,32.5Z"/><path class="cls-4" d="M90.24,60.2a11.29,11.29,0,0,1-6.58-2.1C80.5,55.84,78.3,52,77.45,47.16c-.56-3.21-1.56-11,1.36-13.77,2.25-2.15,17.22-3.09,24-1,2.17.68,3.39,1.65,3.63,2.87.59,2.92-1.79,9.27-3.92,14.48C100.79,54,98.66,56.89,96,58.56A10.78,10.78,0,0,1,90.24,60.2Zm2.08-27.86c-5.86,0-11.65.81-12.74,1.86C77,36.69,78.13,44.6,78.55,47c.79,4.51,2.84,8.14,5.76,10.24a10.06,10.06,0,0,0,11.11.42c2.44-1.54,4.43-4.24,6.08-8.26,1.1-2.69,4.46-10.88,3.86-13.84h0c-.15-.78-1.15-1.49-2.87-2A36.85,36.85,0,0,0,92.32,32.34Z"/><path class="cls-4" d="M62.18,41a.55.55,0,0,1-.32-.1.58.58,0,0,1-.16-.81,10.48,10.48,0,0,1,16.08-1.68.6.6,0,0,1,0,.83.59.59,0,0,1-.83,0,9.31,9.31,0,0,0-14.3,1.49A.6.6,0,0,1,62.18,41Z"/></svg>