<?xml version="1.0" encoding="utf-8"?>
<!-- Generator: Adobe Illustrator 24.3.0, SVG Export Plug-In . SVG Version: 6.00 Build 0)  -->
<svg version="1.1" id="Layer_1" xmlns="http://www.w3.org/2000/svg" xmlns:xlink="http://www.w3.org/1999/xlink" x="0px" y="0px"
	 viewBox="0 0 57.2 41.6" style="enable-background:new 0 0 57.2 41.6;" xml:space="preserve">
<style type="text/css">
	.st0{fill:#A50808;}
</style>
<path class="st0" d="M57.2,13.5C57,8.6,56.6,3.3,55.1,1.2c-0.7-1-2.1-1.4-4.2-1.1c-5.6,0.7-16.7,6.4-17.7,9.1
	c-0.3,0.9-0.4,1.9-0.1,3.2c-3.8-0.5-7.5,1.4-9.3,4.7c-0.6-1.2-1.2-2-1.9-2.5c-1.1-0.9-2.7-0.8-5.2,0.1C10.9,16.8,0.6,24.8,0.1,27.5
	c-0.6,3.5,3.8,7.8,6.6,10.1c2.9,2.6,6.7,4,10.7,4c0,0,0,0,0,0c1.5-0.1,3-0.4,4.4-1.1c2.3-1,4.2-2.9,5.2-5.2c1.1-2.5,1.1-5.5,0.1-9.3
	c-0.5-1.8-1.2-4.1-2-6.1c0.1-0.4,0.2-0.7,0.3-1c1.3-3.4,5-5.3,8.5-4.2c0.7,1.6,1.7,3.5,3,5.5c2.3,3.4,5.3,5.6,8.6,6.2
	c2,0.4,4.1,0.1,5.9-0.7c1.6-0.7,3-1.9,3.9-3.3C56.7,20.2,57.3,17.3,57.2,13.5z M35.2,10c0.3-0.7,3.6-3.1,8.4-5.3
	c2.4-1.2,5-2,7.7-2.4c0.4-0.1,0.7-0.1,0.9-0.1c0.8,0,1.1,0.2,1.3,0.3c0.9,1.2,1.4,4.9,1.7,11l0,0.1c0.1,3.4-0.4,5.9-1.6,7.7
	c-1.7,2.5-4.7,3.7-7.6,3.1c-2.7-0.5-5.3-2.4-7.2-5.3C36.5,16.1,34.4,11.9,35.2,10z M17.2,39.3c-3.4,0-6.6-1.2-9.1-3.5
	c-3.1-2.5-6.2-6-5.8-8c0.2-1.3,8-7.9,14.1-10.7l1.2-0.5c1.1-0.4,1.8-0.5,2.3-0.5c0.4,0,0.6,0.1,0.7,0.2c1.2,0.9,2.7,4.4,4.3,10.3
	l0,0.1c0.9,3.2,0.9,5.8,0,7.8C23.7,37.3,20.6,39.2,17.2,39.3C17.3,39.3,17.2,39.3,17.2,39.3z"/>
</svg>
