<svg id="ps" xmlns="http://www.w3.org/2000/svg" viewBox="0 0 35.12 35.11"><defs><style>.cls-1{fill:#030104;}</style></defs><path class="cls-1" d="M11.91,10a7.19,7.19,0,0,0-1.81.18V15.9a7.26,7.26,0,0,0,1.47.11c2.32,0,3.76-1.18,3.76-3.16C15.33,11.07,14.09,10,11.91,10Z"/><path class="cls-1" d="M33,0H2.15A2.14,2.14,0,0,0,0,2.14V33a2.15,2.15,0,0,0,2.15,2.15H33A2.16,2.16,0,0,0,35.12,33V2.15A2.15,2.15,0,0,0,33,0ZM17.88,17.33a8.94,8.94,0,0,1-6.28,2,10.68,10.68,0,0,1-1.5-.09V26.2H5.77V7.11a36.93,36.93,0,0,1,5.91-.4c2.7,0,4.62.52,5.91,1.55a5.66,5.66,0,0,1,2.07,4.48A6.16,6.16,0,0,1,17.88,17.33Zm6.53,9.16a9.9,9.9,0,0,1-4.54-1l.78-3.13a8.49,8.49,0,0,0,3.76,1.06c1.32,0,1.87-.45,1.87-1.17s-.43-1.06-2.07-1.61c-2.9-1-4-2.55-4-4.22,0-2.61,2.24-4.59,5.71-4.59a9.41,9.41,0,0,1,4,.8l-.77,3a6.81,6.81,0,0,0-3-.81c-1.06,0-1.66.43-1.66,1.15s.54,1,2.26,1.61c2.67.92,3.79,2.27,3.82,4.33C30.5,24.56,28.43,26.49,24.41,26.49Z"/></svg>