<svg id="tool_icon_typescript" data-name="tool icon_typescript" xmlns="http://www.w3.org/2000/svg" viewBox="0 0 34.66 34.66"><defs><style>.cls-1{fill:#fff;}</style></defs><path class="cls-1" d="M32.09,34.66H2.64c0-.14-.1-.1-.16-.12A3.36,3.36,0,0,1,.13,32.19c0-.06,0-.19-.13-.17V2.57l0,0H0c.07,0,.08-.1.1-.17A3.33,3.33,0,0,1,2.51.12c.05,0,.16,0,.13-.12H32.09l0,0,0,0c0,.07.11.08.18.1a3.35,3.35,0,0,1,2.31,2.37c0,.05,0,.16.12.13V32c-.11-.05-.09.06-.1.1a3.39,3.39,0,0,1-2.37,2.42S32,34.55,32.09,34.66Zm-10.63-7v2.65c0,.64,0,.65.61.86a11.72,11.72,0,0,0,5.51.45,6.36,6.36,0,0,0,2.5-.89c1.69-1.06,2-3.72,1.35-5.27a4.72,4.72,0,0,0-2.12-2.14,27.33,27.33,0,0,0-2.57-1.21,4,4,0,0,1-1.49-1,1.19,1.19,0,0,1,.14-1.72,2.26,2.26,0,0,1,1.06-.5,6.53,6.53,0,0,1,4.35.74c.09,0,.18.19.29.11s0-.21,0-.32c0-.8,0-1.6,0-2.4a.42.42,0,0,0-.36-.49,11.86,11.86,0,0,0-5.2-.3,5.52,5.52,0,0,0-2.9,1.27A4.23,4.23,0,0,0,23.09,24a13.6,13.6,0,0,0,2.56,1.35,6.65,6.65,0,0,1,1.85,1.05A1.39,1.39,0,0,1,27,28.91a5.29,5.29,0,0,1-2.65.1A6.74,6.74,0,0,1,21.46,27.69Zm-9.14-2.28c0,2,0,3.92,0,5.88,0,.27.07.34.33.33.92,0,1.83,0,2.74,0,.3,0,.39-.06.39-.38,0-3.89,0-7.78,0-11.67,0-.28.07-.35.35-.35,1.23,0,2.46,0,3.69,0,.23,0,.31,0,.3-.29,0-.73,0-1.47,0-2.2,0-.24-.07-.29-.3-.29H8.27c-.21,0-.29,0-.29.27,0,.75,0,1.49,0,2.23,0,.23.08.28.29.28,1.24,0,2.48,0,3.72,0,.26,0,.34.06.34.33C12.32,21.5,12.32,23.45,12.32,25.41Z"/></svg>