<?xml version="1.0" encoding="utf-8"?>
<!-- Generator: Adobe Illustrator 24.3.0, SVG Export Plug-In . SVG Version: 6.00 Build 0)  -->
<svg version="1.1" id="Layer_1" xmlns="http://www.w3.org/2000/svg" xmlns:xlink="http://www.w3.org/1999/xlink" x="0px" y="0px"
	 viewBox="0 0 35.1 35.1" style="enable-background:new 0 0 35.1 35.1;" xml:space="preserve">
<style type="text/css">
	.st0{fill:#FFFFFF;}
</style>
<g id="id">
	<path class="st0" d="M20.7,16.7c-1.7,0-2.5,1.5-2.5,3.3s1,3.3,2.5,3.3c1,0,1.9-0.7,2.1-1.8c0.1-0.3,0.1-0.6,0.1-0.8v-1.5
		c0-0.2,0-0.5,0-0.6C22.7,17.5,21.8,16.7,20.7,16.7z"/>
	<path class="st0" d="M32.9,0H2.2C1,0,0,1,0,2.2v30.6C0,34,1,35,2.2,35l0,0h30.6c1.2,0,2.2-1,2.2-2.2l0,0V2.2C35.1,1,34.1,0,32.9,0
		L32.9,0z M12.2,26H8.5V9.8h3.7V26z M23.4,26l-0.2-1.7l0,0c-0.8,1.3-2.2,2.1-3.7,2c-2.8,0-5-2.4-5-6c0-4,2.5-6.3,5.3-6.3
		c1.2-0.1,2.4,0.4,3.1,1.3l0,0V8.9h3.6v13.6c0,1.3,0,2.7,0.1,3.5H23.4z"/>
</g>
</svg>
