<?xml version="1.0" encoding="utf-8"?>
<!-- Generator: Adobe Illustrator 24.3.0, SVG Export Plug-In . SVG Version: 6.00 Build 0)  -->
<svg version="1.1" id="Layer_1" xmlns="http://www.w3.org/2000/svg" xmlns:xlink="http://www.w3.org/1999/xlink" x="0px" y="0px"
	 viewBox="0 0 27.7 39.1" style="enable-background:new 0 0 27.7 39.1;" xml:space="preserve">
<style type="text/css">
	.st0{fill:#FFFFFF;}
	.st1{opacity:0.5;fill:#FFFFFF;enable-background:new    ;}
	.st2{opacity:0.1;fill:#FFFFFF;enable-background:new    ;}
</style>
<g id="html">
	<polygon class="st0" points="9.3,20.5 13.9,20.5 13.9,17 8.9,17 	"/>
	<path class="st0" d="M13.9,7.7H0.6C0.3,7.7,0,7.9,0,8.2c0,0,0,0,0,0.1l2.5,27.3c0,0.2,0.2,0.4,0.4,0.5l10.9,3.1l11-3.2
		c0.2-0.1,0.4-0.3,0.4-0.5l2.5-27.2c0-0.3-0.2-0.6-0.5-0.6l0,0C27.2,7.7,13.9,7.7,13.9,7.7z M22.6,34.3l-8,2.3
		c-0.3,0.1-0.6-0.1-0.7-0.4v-0.1v-2.9l-7.1-2l-0.5-5.4h3.5l0.3,2.7l3.9,1.1V24H6.1v0.1l-1-10.6h8.8v-2.9c0-0.3,0.2-0.6,0.6-0.6h10.2
		c0.3,0,0.6,0.3,0.6,0.6c0,0,0,0,0,0.1L23,33.8C23,34,22.8,34.2,22.6,34.3z"/>
	<polygon class="st0" points="4.3,3.5 5.9,3.5 5.9,5.3 7.7,5.3 7.7,0 5.9,0 5.9,1.8 4.3,1.8 4.3,0 2.5,0 2.5,5.3 4.3,5.3 	"/>
	<polygon class="st0" points="22.7,5.3 25.2,5.3 25.2,3.5 22.7,3.5 22.7,0 20.9,0 20.9,5.3 21.4,5.3 	"/>
	<polygon class="st0" points="15.8,2.6 17,4.5 17,4.6 17,4.5 18.3,2.6 18.3,5.3 20,5.3 20,0 19.9,0 18.3,0 18.1,0 17,1.8 15.9,0 
		15.8,0 14.2,0 14.1,0 14.1,5.3 15.8,5.3 	"/>
	<polygon class="st0" points="10,5.3 11.8,5.3 11.8,1.8 13.3,1.8 13.3,0 8.5,0 8.5,1.8 10,1.8 	"/>
	<polygon class="st1" points="18,24 13.9,24 13.9,29.5 17.7,28.4 	"/>
	<polygon class="st1" points="13.9,10 13.9,13.4 22.6,13.4 22.3,17 13.9,17 13.9,20.5 21.9,20.5 21,31.1 13.9,33.1 13.9,36.7 
		23,34.2 25.2,10 	"/>
	<polygon class="st0" points="6.7,31.1 13.9,33.1 13.9,33.1 	"/>
	<polygon class="st2" points="13.9,29.5 10,28.4 9.7,25.7 6.2,25.7 6.7,31.1 13.9,33.1 	"/>
	<polygon class="st2" points="9.3,20.5 8.9,17 13.9,17 13.9,13.4 5.1,13.4 6.1,24 6.1,24 13.9,24 13.9,20.5 	"/>
</g>
</svg>
