<?xml version="1.0" encoding="utf-8"?>
<!-- Generator: Adobe Illustrator 24.3.0, SVG Export Plug-In . SVG Version: 6.00 Build 0)  -->
<svg version="1.1" id="Layer_1" xmlns="http://www.w3.org/2000/svg" xmlns:xlink="http://www.w3.org/1999/xlink" x="0px" y="0px"
	 viewBox="0 0 34.8 34.8" style="enable-background:new 0 0 34.8 34.8;" xml:space="preserve">
<style type="text/css">
	.st0{fill:#DDDDDD;}
</style>
<g id="ai">
	<path class="st0" d="M14.1,11.9L14.1,11.9c-0.3,1.1-0.6,2.4-0.9,3.4l-1.1,3.8h3.9L15,15.4C14.7,14.3,14.4,13,14.1,11.9z"/>
	<path class="st0" d="M32.7,0H2.1C1,0,0,1,0,2.1v30.6c0,1.2,1,2.1,2.1,2.1c0,0,0,0,0,0h30.6c1.2,0,2.1-1,2.1-2.1V2.1
		C34.8,1,33.9,0,32.7,0z M18.1,26.7l-1.4-4.5h-5.1l-1.3,4.5H6.2l5.4-17.7h5.3l5.5,17.7H18.1z M28.5,26.7h-4V13.8h4V26.7z M26.5,12.2
		c-1.1,0-2-0.8-2.1-1.9c0,0,0-0.1,0-0.1c0-1.1,0.9-2,2-2c0,0,0.1,0,0.1,0c1.1,0,2,0.9,2,2S27.6,12.2,26.5,12.2L26.5,12.2z"/>
</g>
</svg>
