<?xml version="1.0" encoding="utf-8"?>
<!-- Generator: Adobe Illustrator 24.3.0, SVG Export Plug-In . SVG Version: 6.00 Build 0)  -->
<svg version="1.1" id="Layer_2" xmlns="http://www.w3.org/2000/svg" xmlns:xlink="http://www.w3.org/1999/xlink" x="0px" y="0px"
	 viewBox="0 0 27.6 39.1" style="enable-background:new 0 0 27.6 39.1;" xml:space="preserve">
<style type="text/css">
	.st0{fill:#DDDDDD;}
	.st1{opacity:0.5;fill:#DDDDDD;enable-background:new    ;}
	.st2{fill:#5C5C5C;}
	.st3{opacity:0.2;fill:#DDDDDD;enable-background:new    ;}
	.st4{opacity:0.1;fill:#DDDDDD;enable-background:new    ;}
	.st5{opacity:0.25;fill:#DDDDDD;enable-background:new    ;}
</style>
<polygon class="st0" points="9.8,3.5 7.3,3.5 7.3,1.8 9.8,1.8 9.8,0 5.5,0 5.5,5.3 9.8,5.3 "/>
<polygon class="st0" points="15.9,3.5 14.3,1.8 15.9,1.8 15.9,0 11.6,0 11.6,1.9 13.4,3.5 11.6,3.5 11.6,5.3 15.9,5.3 "/>
<polygon class="st0" points="22.1,3.5 20.4,1.8 22.1,1.8 22.1,0 17.8,0 17.8,1.9 19.6,3.5 17.8,3.5 17.8,5.3 22.1,5.3 "/>
<path class="st0" d="M0,8.3l2.4,27.3c0,0.2,0.2,0.4,0.4,0.5l11,3l11-3c0.2-0.1,0.4-0.3,0.4-0.5l2.4-27.3c0-0.3-0.2-0.6-0.5-0.6
	c0,0,0,0,0,0H0.6C0.3,7.7,0,7.9,0,8.3C0,8.3,0,8.3,0,8.3z M22.6,34.3l-8.1,2.2c-0.3,0.1-0.6-0.1-0.7-0.4c0,0,0-0.1,0-0.2v-2.8l0,0
	l-7.1-2l-0.5-5.4h3.5l0.3,2.8l3.9,1l0,0v-5.6H6l-0.3-3.5l8.1-3.4v-0.2H5.4l-0.3-3.5h8.7v-2.7c0-0.3,0.2-0.6,0.5-0.6c0,0,0,0,0,0
	h10.1c0.3,0,0.6,0.3,0.6,0.6c0,0,0,0,0,0l-2,23.2C23,34.1,22.9,34.2,22.6,34.3L22.6,34.3z"/>
<polygon class="st1" points="13.8,13.3 22.5,13.3 22.2,16.7 13.8,20.4 21.9,20.4 21,31.2 13.8,33.1 13.8,36.7 23,34.2 25.2,10 
	13.8,10 "/>
<polygon class="st2" points="13.8,16.7 13.8,17 14.4,16.7 "/>
<polygon class="st1" points="17.7,28.4 18.1,23.9 13.8,23.9 13.8,29.5 13.8,29.5 "/>
<polygon class="st3" points="13.8,17 5.7,20.4 13.8,20.4 "/>
<polygon class="st4" points="22.2,16.7 14.4,16.7 13.8,17 13.8,20.4 "/>
<polygon class="st5" points="13.8,29.5 13.8,29.5 9.9,28.5 9.7,25.7 6.2,25.7 6.7,31.2 13.8,33.1 13.8,33.1 13.8,29.5 "/>
<polygon class="st5" points="5.7,20.4 6,23.9 13.8,23.9 13.8,20.4 "/>
<polygon class="st5" points="13.8,13.3 13.8,13.3 5.1,13.3 5.4,16.7 13.8,16.7 13.8,16.7 "/>
</svg>
