<svg xmlns="http://www.w3.org/2000/svg" viewBox="0 0 27.64 39.14"><defs><style>.cls-1,.cls-2,.cls-4,.cls-5,.cls-6{fill:#181616;}.cls-2{opacity:0.5;}.cls-3{fill:#5c5c5c;}.cls-4{opacity:0.2;}.cls-5{opacity:0.1;}.cls-6{opacity:0.25;}</style></defs><g id="css"><polygon points="9.8 3.47 7.3 3.47 7.3 1.8 9.8 1.8 9.8 0 5.5 0 5.5 5.27 9.8 5.27 9.8 3.47"/><polygon points="15.9 3.52 14.27 1.8 15.9 1.8 15.9 0 11.6 0 11.6 1.85 13.39 3.47 11.6 3.47 11.6 5.27 15.9 5.27 15.9 3.52"/><polygon points="22.14 3.52 20.44 1.8 22.14 1.8 22.14 0 17.84 0 17.84 1.85 19.57 3.47 17.84 3.47 17.84 5.27 22.14 5.27 22.14 3.52"/><path class="cls-1" d="M0,8.29,2.44,35.61a.57.57,0,0,0,.41.49l11,3,11-3a.57.57,0,0,0,.41-.49L27.64,8.29a.57.57,0,0,0-.56-.61H.56A.56.56,0,0,0,0,8.29Zm22.64,26-8.09,2.22a.56.56,0,0,1-.71-.54V33.13h0l-7.12-2L6.2,25.71H9.69l.25,2.77,3.88,1h0v-5.6H6l-.3-3.47L13.84,17v-.24H5.42l-.31-3.46h8.73V10.59A.57.57,0,0,1,14.4,10H24.55a.56.56,0,0,1,.55.61L23.05,33.82A.58.58,0,0,1,22.64,34.31Z"/><polygon class="cls-2" points="13.84 13.26 22.49 13.26 22.2 16.73 13.84 20.44 21.88 20.44 20.95 31.16 13.84 33.13 13.84 36.73 23.01 34.21 25.16 10.04 13.84 10.04 13.84 13.26"/><polygon class="cls-3" points="13.84 16.73 13.84 16.96 14.4 16.73 13.84 16.73"/><polygon class="cls-3" points="17.7 28.44 18.08 23.91 13.84 23.91 13.84 29.51 13.84 29.51 17.7 28.44"/><polygon class="cls-4" points="13.84 16.96 5.73 20.44 13.84 20.44 13.84 16.96"/><polygon class="cls-5" points="22.2 16.73 14.4 16.73 13.84 16.96 13.84 20.44 22.2 16.73"/><polygon class="cls-6" points="13.84 29.51 13.81 29.52 9.94 28.48 9.69 25.71 6.2 25.71 6.69 31.16 13.81 33.13 13.84 33.13 13.84 29.51 13.84 29.51"/><polygon class="cls-6" points="5.73 20.44 6.03 23.91 13.84 23.91 13.84 20.44 5.73 20.44"/><polygon class="cls-6" points="13.84 13.26 13.81 13.26 5.11 13.26 5.42 16.73 13.84 16.73 13.84 16.68 13.84 13.26"/></g></svg>