<svg xmlns="http://www.w3.org/2000/svg" viewBox="0 0 27.69 39.14"><defs><style>.cls-1,.cls-3,.cls-5{fill:#181616;}.cls-2{fill:#5c5c5c;}.cls-3{opacity:0.5;}.cls-4{fill:#fff;}.cls-5{opacity:0.1;}</style></defs><g id="html"><polygon class="cls-1" points="9.26 20.5 13.85 20.5 13.85 16.95 8.93 16.95 9.26 20.5"/><path class="cls-1" d="M13.85,7.67H.57A.57.57,0,0,0,0,8.29L2.52,35.55a.56.56,0,0,0,.4.49l10.93,3.1L24.77,36a.58.58,0,0,0,.41-.49L27.69,8.29a.57.57,0,0,0-.56-.62Zm8.77,26.59-8,2.28a.57.57,0,0,1-.72-.54V33.14l-7.12-2-.5-5.41H9.74L10,28.42l3.87,1.11V24H6.1l0,.06-1-10.58h8.75v-2.9a.57.57,0,0,1,.56-.57H24.6a.57.57,0,0,1,.57.62L23,33.76A.57.57,0,0,1,22.62,34.26Z"/><polygon points="4.31 3.53 5.91 3.53 5.91 5.28 7.68 5.28 7.68 0 5.91 0 5.91 1.75 4.31 1.75 4.31 0 2.53 0 2.53 5.28 4.31 5.28 4.31 3.53"/><polygon points="22.69 5.28 25.16 5.28 25.16 3.5 22.69 3.5 22.69 0 20.92 0 20.92 5.28 21.36 5.28 22.69 5.28"/><polygon points="15.81 2.64 17.03 4.54 17.04 4.55 17.04 4.54 18.3 2.59 18.3 5.28 20.01 5.28 20.01 0 19.89 0 18.3 0 18.14 0 17.04 1.8 15.94 0 15.81 0 14.18 0 14.1 0 14.1 5.28 15.81 5.28 15.81 2.64"/><polygon points="10 5.28 11.78 5.28 11.78 1.78 13.32 1.78 13.32 0 8.46 0 8.46 1.78 10 1.78 10 5.28"/><polygon class="cls-2" points="18.05 23.96 13.85 23.96 13.85 29.53 17.66 28.43 18.05 23.96"/><polygon class="cls-3" points="13.85 9.97 13.85 13.44 22.59 13.44 22.27 16.95 13.85 16.95 13.85 20.5 21.94 20.5 20.96 31.12 13.85 33.14 13.85 36.74 23 34.15 25.22 9.97 13.85 9.97"/><polygon class="cls-4" points="6.73 31.12 13.85 33.14 13.85 33.14 6.73 31.12"/><polygon class="cls-5" points="13.85 29.53 9.98 28.42 9.74 25.71 6.23 25.71 6.73 31.12 13.85 33.14 13.85 29.53"/><polygon class="cls-5" points="9.26 20.5 8.93 16.95 13.85 16.95 13.85 13.44 5.1 13.44 6.08 24.02 6.1 23.96 13.85 23.96 13.85 20.5 9.26 20.5"/></g></svg>