<?xml version="1.0" encoding="utf-8"?>
<!-- Generator: Adobe Illustrator 24.3.0, SVG Export Plug-In . SVG Version: 6.00 Build 0)  -->
<svg version="1.1" id="ps" xmlns="http://www.w3.org/2000/svg" xmlns:xlink="http://www.w3.org/1999/xlink" x="0px" y="0px"
	 viewBox="0 0 35.1 35.1" style="enable-background:new 0 0 35.1 35.1;" xml:space="preserve">
<style type="text/css">
	.st0{fill:#FFFFFF;}
</style>
<path class="st0" d="M11.9,10c-0.6,0-1.2,0-1.8,0.2v5.7c0.5,0.1,1,0.1,1.5,0.1c2.3,0,3.8-1.2,3.8-3.2C15.3,11.1,14.1,10,11.9,10z"/>
<path class="st0" d="M33,0H2.2C1,0,0,0.9,0,2.1l0,0V33c0,1.2,1,2.2,2.1,2.2l0,0H33c1.2,0,2.1-1,2.1-2.2V2.2C35.1,1,34.2,0,33,0z
	 M17.9,17.3c-1.8,1.4-4,2.2-6.3,2c-0.5,0-1,0-1.5-0.1v7H5.8V7.1c2-0.3,3.9-0.4,5.9-0.4c2.7,0,4.6,0.5,5.9,1.6s2.1,2.7,2.1,4.5
	C19.7,14.5,19.1,16.1,17.9,17.3z M24.4,26.5c-1.6,0-3.1-0.3-4.5-1l0.8-3.1c1.2,0.6,2.4,1,3.8,1.1c1.3,0,1.9-0.5,1.9-1.2
	s-0.4-1.1-2.1-1.6c-2.9-1-4-2.5-4-4.2c0-2.6,2.2-4.6,5.7-4.6c1.4,0,2.7,0.2,4,0.8l-0.8,3c-0.9-0.5-2-0.8-3-0.8
	c-1.1,0-1.7,0.4-1.7,1.1s0.5,1,2.3,1.6c2.7,0.9,3.8,2.3,3.8,4.3C30.5,24.6,28.4,26.5,24.4,26.5z"/>
</svg>
