<svg xmlns="http://www.w3.org/2000/svg" viewBox="0 0 35.11 35.11"><defs><style>.cls-1{fill:#181616;}</style></defs><g id="git"><path class="cls-1" d="M34.45,16,19.12.66a2.27,2.27,0,0,0-3.2,0L12.74,3.85l4,4a2.69,2.69,0,0,1,3.4,3.43l3.89,3.89a2.69,2.69,0,1,1-1.61,1.52l-3.63-3.63v9.55a2.66,2.66,0,0,1,.71.51,2.69,2.69,0,1,1-3.81,0,2.61,2.61,0,0,1,.89-.59V12.92a2.61,2.61,0,0,1-.89-.59,2.71,2.71,0,0,1-.58-2.94l-4-4L.66,15.92a2.27,2.27,0,0,0,0,3.2L16,34.45a2.25,2.25,0,0,0,1.59.66h0a2.23,2.23,0,0,0,1.59-.66L34.45,19.19a2.27,2.27,0,0,0,0-3.2Z"/></g></svg>