<?xml version="1.0" encoding="utf-8"?>
<!-- Generator: Adobe Illustrator 24.3.0, SVG Export Plug-In . SVG Version: 6.00 Build 0)  -->
<svg version="1.1" id="Layer_1" xmlns="http://www.w3.org/2000/svg" xmlns:xlink="http://www.w3.org/1999/xlink" x="0px" y="0px"
	 viewBox="0 0 35.1 35.1" style="enable-background:new 0 0 35.1 35.1;" xml:space="preserve">
<style type="text/css">
	.st0{fill:#FFFFFF;}
</style>
<g id="git">
	<path class="st0" d="M34.5,16L19.1,0.7c-0.9-0.9-2.3-0.9-3.2,0l-3.2,3.2l4,4c1.4-0.5,2.9,0.3,3.4,1.7c0.2,0.6,0.2,1.2,0,1.7
		l3.9,3.9c1.4-0.5,2.9,0.3,3.4,1.7s-0.3,2.9-1.7,3.4s-2.9-0.3-3.4-1.7c-0.2-0.6-0.2-1.3,0.1-1.9l-3.6-3.6v9.6
		c0.3,0.1,0.5,0.3,0.7,0.5c1,1.1,1,2.8,0,3.8c-1.1,1-2.8,1-3.8,0s-1-2.7,0-3.8c0.3-0.3,0.6-0.5,0.9-0.6V13c-0.3-0.1-0.6-0.3-0.9-0.6
		c-0.8-0.8-1-1.9-0.6-2.9l-4-4L0.7,15.9c-0.9,0.9-0.9,2.3,0,3.2L16,34.5c0.4,0.4,1,0.7,1.6,0.7l0,0c0.6,0,1.2-0.2,1.6-0.7l15.3-15.3
		C35.3,18.3,35.3,16.9,34.5,16L34.5,16z"/>
</g>
</svg>
