<svg xmlns="http://www.w3.org/2000/svg" viewBox="0 0 35.01 35"><defs><style>.cls-1{fill:#fff;}</style></defs><g id="tool_icom_react" data-name="tool icom_react"><path class="cls-1" d="M.18,17.14c.05-.19.11-.37.17-.56a4.65,4.65,0,0,1,1.54-2.17,10.5,10.5,0,0,1,2.43-1.54c1-.45,2.06-.82,3.14-1.24-.06-.27-.14-.6-.19-.93C7.16,10,7.05,9.32,7,8.63a15.92,15.92,0,0,1-.07-1.69A6.82,6.82,0,0,1,7.5,4,3,3,0,0,1,9.91,2.16,5.76,5.76,0,0,1,13,2.73a14.06,14.06,0,0,1,3.76,2.49c.24.22.49.43.75.65C18,5.46,18.47,5,19,4.63a12.79,12.79,0,0,1,3.75-2.21,4.65,4.65,0,0,1,2.81-.2,2.88,2.88,0,0,1,1.73,1.39A6.1,6.1,0,0,1,28,6.41a9,9,0,0,1,.06,1.37C28,8.87,27.83,10,27.69,11c0,.21-.09.42-.14.67l1,.33A13.91,13.91,0,0,1,33,14.35a4.41,4.41,0,0,1,1.79,2.79,2.89,2.89,0,0,1-.4,1.84,7.63,7.63,0,0,1-3,2.71,18.69,18.69,0,0,1-3.79,1.58c.08.39.16.78.22,1.18.09.59.18,1.18.23,1.77a13.16,13.16,0,0,1,.06,1.66A7.83,7.83,0,0,1,27.49,31a3.14,3.14,0,0,1-2.26,1.86c-.21.05-.42.06-.64.09h-.12l-.27-.07a6.15,6.15,0,0,1-.75-.09,11,11,0,0,1-4.38-2.33c-.51-.41-1-.85-1.52-1.28a12.12,12.12,0,0,1-1,.9c-.82.59-1.65,1.19-2.52,1.72a6.9,6.9,0,0,1-3.65,1.09,3,3,0,0,1-2.79-1.73A5.21,5.21,0,0,1,7,28.78c0-1-.06-1.94,0-2.91.06-.79.28-1.56.42-2.35a.27.27,0,0,0-.12-.22A14.91,14.91,0,0,1,1.9,20.55,5,5,0,0,1,.39,18.46c-.09-.23-.14-.47-.21-.7Zm17.27,5.93V23h2.82a.62.62,0,0,0,.56-.28,44.35,44.35,0,0,0,2.89-5.06.58.58,0,0,0,0-.41c-.23-.48-.47-1-.75-1.43-.71-1.22-1.45-2.43-2.19-3.63a.41.41,0,0,0-.28-.18c-.61-.06-1.22-.13-1.83-.13-1.22,0-2.44,0-3.65.07-.3,0-.64,0-.88.34a51.09,51.09,0,0,0-2.84,5,.49.49,0,0,0,0,.41c.47.91.94,1.82,1.45,2.71s1,1.61,1.51,2.41a.45.45,0,0,0,.27.19c.59,0,1.18.05,1.78.07Zm-9.59-10a15.47,15.47,0,0,0-3.63,1.45,7,7,0,0,0-2.14,1.78,1.58,1.58,0,0,0-.21,1.9,5.69,5.69,0,0,0,1.89,1.86,12.54,12.54,0,0,0,3.39,1.6l.64.2c.53-1.36,1-2.69,1.59-4A1,1,0,0,0,9.34,17c-.32-.71-.61-1.45-.89-2.18C8.24,14.25,8.06,13.68,7.86,13.12Zm1,10.59a1.35,1.35,0,0,0-.09.26A16.88,16.88,0,0,0,8.36,28a6.39,6.39,0,0,0,.39,2.08c.24.63.61,1.19,1.35,1.25a4.48,4.48,0,0,0,1.5-.15,9.48,9.48,0,0,0,3.3-1.76c.56-.43,1.09-.9,1.63-1.35l-.28-.37c-.84-1-1.67-2.09-2.52-3.12a.79.79,0,0,0-.39-.27c-.44-.07-.89-.08-1.33-.13l-2-.28C9.67,23.88,9.29,23.79,8.9,23.71Zm9.71,4.37.92.81A11.86,11.86,0,0,0,23,31.1a3.52,3.52,0,0,0,1.92.28,1.74,1.74,0,0,0,1.31-1.3,7.42,7.42,0,0,0,.38-3.62c-.11-.85-.25-1.7-.37-2.55,0-.15-.07-.28-.27-.24-.66.12-1.32.27-2,.37s-1.52.2-2.28.31a.5.5,0,0,0-.31.18c-.54.68-1.05,1.38-1.59,2.07C19.44,27.1,19,27.58,18.61,28.08ZM8.82,11.29a1.94,1.94,0,0,0,.37,0l4-.6a1,1,0,0,0,.63-.39c.54-.73,1.11-1.44,1.68-2.15.33-.4.68-.79,1-1.19a1.73,1.73,0,0,0-.23-.24,18.25,18.25,0,0,0-3-2.23,6.2,6.2,0,0,0-2.65-.9c-1-.06-1.45.3-1.83,1.3a7.38,7.38,0,0,0-.31,3.55C8.55,9.38,8.69,10.33,8.82,11.29Zm17.37,0c.14-1,.35-2.05.44-3.1a7.66,7.66,0,0,0-.44-3.45,1.78,1.78,0,0,0-2.08-1.19,7,7,0,0,0-2.58,1.06c-.66.42-1.3.89-1.92,1.37-.37.28-.69.63-1,.94l.41.51,2.16,2.71c.19.25.36.51.74.52A8.07,8.07,0,0,1,23,10.8Zm1.08,10.51.12,0c.65-.24,1.32-.43,1.95-.72a8.59,8.59,0,0,0,3.5-2.4,1.59,1.59,0,0,0,.22-2.1,5.16,5.16,0,0,0-1.44-1.43,14.81,14.81,0,0,0-4.21-2,.43.43,0,0,0-.19,0c-.58,1.42-1.15,2.8-1.71,4.18a.41.41,0,0,0,0,.22c.13.29.28.56.4.85Zm-1.43.43-1.19-3.08-2.08,3.64Zm-13.38.58-2.08-3.59L9.25,22.32Zm3.1,1.69-.05.07,2.06,2.46,2.05-2.53Zm9.08-8.77,1.12-3-3.18-.56Zm-5.05-5.29L17.51,8l-2.06,2.49ZM9.26,12.73l1.12,3,2-3.56Z"/><path class="cls-1" d="M17.49,20.58a3.07,3.07,0,0,1-3.1-3.11,3,3,0,0,1,3.11-3.13,3,3,0,0,1,3.12,3.12A3.07,3.07,0,0,1,17.49,20.58Z"/></g></svg>