<svg xmlns="http://www.w3.org/2000/svg" viewBox="0 0 35.12 35.12"><defs><style>.cls-1{fill:#090509;}</style></defs><g id="id"><path class="cls-1" d="M20.7,16.73c-1.66,0-2.52,1.49-2.52,3.34s1,3.25,2.49,3.25a2.15,2.15,0,0,0,2.12-1.76,3.14,3.14,0,0,0,.09-.84V19.18c0-.19,0-.45,0-.65A2.2,2.2,0,0,0,20.7,16.73Z"/><path class="cls-1" d="M32.88,0H2.24A2.24,2.24,0,0,0,0,2.24V32.88a2.24,2.24,0,0,0,2.24,2.24H32.88a2.24,2.24,0,0,0,2.24-2.24V2.24A2.24,2.24,0,0,0,32.88,0ZM12.17,26H8.5V9.77h3.67Zm11.22,0-.17-1.72h0a4.09,4.09,0,0,1-3.67,2c-2.79,0-5-2.38-5-6,0-4,2.45-6.25,5.26-6.25a3.58,3.58,0,0,1,3.1,1.33h.05V8.9h3.65V22.45c0,1.32,0,2.71.09,3.51Z"/></g></svg>