<svg xmlns="http://www.w3.org/2000/svg" viewBox="0 0 34.85 34.85"><defs><style>.cls-1{fill:#030104;}</style></defs><g id="ai"><path class="cls-1" d="M14.14,11.92h-.05c-.26,1.06-.52,2.4-.81,3.43l-1.06,3.76h3.92L15,15.35C14.72,14.29,14.41,13,14.14,11.92Z"/><path class="cls-1" d="M32.71,0H2.13A2.13,2.13,0,0,0,0,2.13V32.72a2.13,2.13,0,0,0,2.13,2.13H32.72a2.14,2.14,0,0,0,2.13-2.13V2.13A2.14,2.14,0,0,0,32.71,0ZM18.09,26.66l-1.37-4.55H11.65l-1.27,4.55H6.23L11.65,8.93h5.26l5.5,17.73Zm10.4,0h-4V13.79h4Zm-2-14.44a2,2,0,0,1-2.08-2,2,2,0,0,1,2.11-2,2,2,0,1,1,0,4Z"/></g></svg>