<svg xmlns="http://www.w3.org/2000/svg" viewBox="0 0 35.91 35.03"><defs><style>.cls-1{fill:#181616;fill-rule:evenodd;}</style></defs><g id="github"><path class="cls-1" d="M18,0a18,18,0,0,0-5.68,35c.9.16,1.23-.39,1.23-.87s0-1.55,0-3.05c-5,1.08-6.05-2.41-6.05-2.41a4.77,4.77,0,0,0-2-2.63C3.81,24.93,5.56,25,5.56,25A3.76,3.76,0,0,1,8.31,26.8a3.82,3.82,0,0,0,5.23,1.49,3.84,3.84,0,0,1,1.14-2.4c-4-.45-8.18-2-8.18-8.87A7,7,0,0,1,8.35,12.2a6.45,6.45,0,0,1,.17-4.75S10,7,13.46,9.29a16.87,16.87,0,0,1,9,0C25.88,7,27.39,7.45,27.39,7.45a6.47,6.47,0,0,1,.18,4.75A6.94,6.94,0,0,1,29.41,17c0,6.9-4.2,8.41-8.2,8.86a4.25,4.25,0,0,1,1.22,3.32c0,2.41,0,4.34,0,4.93s.32,1,1.23.86A18,18,0,0,0,18,0Z"/></g></svg>