<svg xmlns="http://www.w3.org/2000/svg" viewBox="0 0 35 35"><defs><style>.cls-1{fill:#fff;}</style></defs><g id="tool_icon_wordpress" data-name="tool icon_wordpress"><path class="cls-1" d="M17.48,35A17.5,17.5,0,1,1,35,17.55,17.49,17.49,0,0,1,17.48,35Zm0-1A16.45,16.45,0,1,0,1.05,17.47,16.48,16.48,0,0,0,17.49,34Z"/><path class="cls-1" d="M13.9,26.3a.75.75,0,0,1-.22-.42L8.77,11.27c-.2-.6-.19-.61.43-.65l.89-.08c.45-.06.7-.31.67-.67s-.28-.54-.74-.53l-3.56.17H5.83c-.13,0-.28,0-.35-.09s0-.24.12-.34A14.4,14.4,0,0,1,8.29,6.2a14.58,14.58,0,0,1,18.46,0c.15.12.34.21.39.42s-.21.09-.31.11a2.61,2.61,0,0,0-2.07,3.07,5.65,5.65,0,0,0,.71,1.81c.39.67.82,1.32,1.16,2a7.39,7.39,0,0,1,.44,5.17c-.61,2.41-1.44,4.74-2.17,7.11,0,.06,0,.14-.12.16s-.16-.25-.21-.39L19.71,11.27c-.2-.6-.18-.61.43-.65.3,0,.6,0,.89-.09.46,0,.7-.3.67-.65s-.27-.55-.73-.54-1.07.05-1.61.09a34.44,34.44,0,0,1-5.47-.07,3.9,3.9,0,0,0-.59,0,.53.53,0,0,0-.55.54.52.52,0,0,0,.46.61,6.73,6.73,0,0,0,1.09.12.64.64,0,0,1,.66.47c.64,1.8,1.3,3.6,2,5.39a1,1,0,0,1,0,.74C16,20.14,15,23.07,14,26,14,26.09,14,26.18,13.9,26.3Z"/><path class="cls-1" d="M17.76,19c.16.09.16.26.21.4L22.1,30.66c.22.63.22.63-.42.82a14.37,14.37,0,0,1-7.75.15c-.54-.13-.55-.14-.37-.64q2-5.83,4-11.65C17.6,19.21,17.61,19.06,17.76,19Z"/><path class="cls-1" d="M11,30.51a6.24,6.24,0,0,1-1.7-.93A14.57,14.57,0,0,1,3.84,12.39c.08-.2.1-.54.32-.55s.24.34.31.53l6.45,17.68c.05.14.09.29.13.44Z"/><path class="cls-1" d="M24.94,30.05a1.46,1.46,0,0,1,.14-.65l4.5-13A12.55,12.55,0,0,0,30.34,11c0-.06,0-.11,0-.18,1.32,1.21,2.11,6.4,1.43,9.62A14.5,14.5,0,0,1,24.94,30.05Z"/><polygon class="cls-1" points="11.05 30.49 11.05 30.51 11.03 30.51 11.05 30.49"/></g></svg>