<?xml version="1.0" encoding="utf-8"?>
<!-- Generator: Adobe Illustrator 24.3.0, SVG Export Plug-In . SVG Version: 6.00 Build 0)  -->
<svg version="1.1" id="Layer_1" xmlns="http://www.w3.org/2000/svg" xmlns:xlink="http://www.w3.org/1999/xlink" x="0px" y="0px"
	 viewBox="0 0 35.9 35" style="enable-background:new 0 0 35.9 35;" xml:space="preserve">
<style type="text/css">
	.st0{fill-rule:evenodd;clip-rule:evenodd;fill:#DDDDDD;}
</style>
<g id="github">
	<path class="st0" d="M18,0C8.1,0.1,0.1,8.3,0.2,18.2C0.3,25.8,5.2,32.5,12.3,35c0.9,0.2,1.2-0.4,1.2-0.9s0-1.5,0-3
		c-5,1.1-6.1-2.4-6.1-2.4c-0.3-1.1-1-2-2-2.6c-1.7-1.1,0.1-1,0.1-1c1.1,0.1,2.2,0.8,2.8,1.8c1,1.9,3.3,2.5,5.2,1.5c0,0,0,0,0,0
		c0.1-0.9,0.5-1.8,1.1-2.4c-4-0.5-8.2-2-8.2-8.9c0-1.8,0.6-3.5,1.8-4.8C7.8,10.7,7.9,9,8.5,7.4c0,0,1.5-0.4,4.9,1.8
		c2.9-0.8,6.1-0.8,9,0c3.4-2.3,4.9-1.8,4.9-1.8c0.7,1.5,0.7,3.2,0.2,4.8c1.2,1.3,1.9,3,1.8,4.8c0,6.9-4.2,8.4-8.2,8.9
		c0.9,0.9,1.3,2.1,1.2,3.3c0,2.4,0,4.3,0,4.9s0.3,1,1.2,0.9c9.4-3.3,14.3-13.6,11-23C32.1,4.9,25.5,0.1,18,0z"/>
</g>
</svg>
